<svg class="logo" xmlns="http://www.w3.org/2000/svg" viewBox="0 0 286 85"><path fill="#009ADA" d="M0 0h286v85H0z"/><path fill="#E71F01" d="M149.5 14.4H31.3c-9.2 0-16.7 7.5-16.7 16.7s7.5 16.7 16.7 16.7S48 40.3 48 31.1v-3H36.4v3c0 2.7-2.2 4.9-4.9 4.9s-4.9-2.2-4.9-4.9 2.2-4.9 4.9-4.9h20.1c-.5 1.6-.8 3.2-.8 5 0 9.2 7.5 16.7 16.7 16.7s16.7-7.5 16.7-16.7v-3H72.4v3c0 2.7-2.2 4.9-4.9 4.9s-4.9-2.2-4.9-4.9 2.2-4.9 4.9-4.9h20.1c-.5 1.6-.7 3.2-.7 5 0 9.2 7.5 16.7 16.7 16.7s16.7-7.5 16.7-16.7v-3h-11.9v3c0 2.7-2.2 4.9-4.9 4.9s-4.9-2.2-4.9-4.9 2.2-4.9 4.9-4.9h33.2c1-1.7 2.1-3.3 3.3-4.6.9-1.1 1.9-1.9 2-2h-.1.1c3-3 5.8-4.6 7.5-5.4z"/><path fill="#FFF" d="M31.4 40.5c-5.2 0-9.5-4.2-9.5-9.5 0-5.2 4.2-9.5 9.5-9.5h22.3c.5-.7 1.1-1.4 1.7-2h-24c-6.4 0-11.5 5.2-11.5 11.5 0 6.4 5.2 11.5 11.5 11.5S43 37.4 43 31.1v-3h-2v3c-.1 5.2-4.3 9.4-9.6 9.4zm36.1 0c-5.2 0-9.5-4.2-9.5-9.5 0-5.2 4.2-9.5 9.5-9.5h22.3c.5-.7 1.1-1.4 1.7-2h-24C61.1 19.5 56 24.7 56 31c0 6.4 5.2 11.5 11.5 11.5C73.9 42.5 79 37.3 79 31v-3h-2v3c-.1 5.3-4.3 9.5-9.5 9.5zM92 31.1c0 6.4 5.2 11.5 11.5 11.5 6.4 0 11.5-5.2 11.5-11.5v-3h-2v3c0 5.2-4.2 9.5-9.5 9.5-5.2 0-9.5-4.2-9.5-9.5 0-5.2 4.2-9.5 9.5-9.5H140c.9-1.1 1.9-1.9 2.1-2h-38.5c-6.5 0-11.6 5.1-11.6 11.5z"/><path fill="#E71F01" d="M0 61.5h286v1.7H0z"/><path d="M156.9 14.4h5.6c1.3 0 2.2.1 2.9.3.9.3 1.7.7 2.3 1.4.6.7 1.1 1.5 1.4 2.5.3 1 .5 2.2.5 3.6 0 1.2-.2 2.3-.5 3.2-.4 1.1-.9 2-1.6 2.7-.5.5-1.2.9-2.1 1.2-.7.2-1.6.3-2.7.3h-5.8V14.4zM160 17v10h2.3c.9 0 1.5 0 1.8-.1.5-.1.9-.3 1.2-.6.3-.3.6-.8.8-1.5.2-.7.3-1.6.3-2.8 0-1.2-.1-2.1-.3-2.7-.2-.6-.5-1.1-.9-1.5-.4-.4-.8-.6-1.4-.7-.4-.1-1.3-.1-2.5-.1H160zm14.4 4.9l-2.6-.5c.3-1.1.8-1.8 1.5-2.4.7-.5 1.8-.8 3.2-.8 1.3 0 2.3.2 2.9.5.6.3 1.1.7 1.3 1.2.3.5.4 1.3.4 2.6v3.4c0 1 0 1.7.1 2.1.1.5.3 1 .5 1.5h-2.9c-.1-.2-.2-.5-.3-.9 0-.2-.1-.3-.1-.3-.5.5-1 .8-1.6 1.1-.6.2-1.2.4-1.8.4-1.1 0-2-.3-2.7-.9-.6-.6-1-1.4-1-2.3 0-.6.1-1.2.4-1.7.3-.5.7-.9 1.2-1.1.5-.3 1.3-.5 2.3-.7 1.4-.3 2.3-.5 2.8-.7v-.3c0-.6-.1-1-.4-1.2-.3-.2-.8-.4-1.6-.4-.5 0-.9.1-1.2.3 0 .3-.2.6-.4 1.1zm3.9 2.4c-.4.1-1 .3-1.8.4-.8.2-1.3.3-1.6.5-.4.3-.6.6-.6 1s.2.8.5 1.1c.3.3.7.4 1.2.4s1-.2 1.5-.5c.4-.3.6-.6.7-1 .1-.3.1-.7.1-1.4v-.5zm15.7 5.3h-2.9V24c0-1.2-.1-2-.2-2.3-.1-.3-.3-.6-.6-.8-.3-.2-.6-.3-1-.3-.5 0-1 .1-1.4.4-.4.3-.7.6-.8 1.1-.1.5-.2 1.3-.2 2.5v5H184v-11h2.7v1.6c1-1.2 2.2-1.9 3.6-1.9.6 0 1.2.1 1.8.3.5.2.9.5 1.2.9.3.4.5.8.6 1.2.1.5.2 1.1.2 2v6.9zm1.9-3.2l2.9-.4c.1.6.4 1 .8 1.3.4.3.9.4 1.6.4.8 0 1.3-.1 1.7-.4.3-.2.4-.5.4-.8 0-.2-.1-.4-.2-.5-.1-.1-.5-.3-1-.4-2.3-.5-3.8-1-4.5-1.4-.9-.6-1.3-1.4-1.3-2.5 0-1 .4-1.8 1.1-2.4.7-.6 1.9-1 3.5-1 1.5 0 2.6.2 3.3.7.7.5 1.2 1.2 1.5 2.2l-2.7.5c-.1-.4-.3-.8-.7-1-.3-.2-.8-.3-1.4-.3-.8 0-1.3.1-1.6.3-.2.2-.3.3-.3.6 0 .2.1.4.3.5.3.2 1.2.5 2.7.8 1.5.4 2.6.8 3.2 1.3.6.5.9 1.2.9 2.2 0 1-.4 1.9-1.3 2.6-.8.7-2.1 1.1-3.7 1.1-1.5 0-2.7-.3-3.5-.9s-1.4-1.4-1.7-2.5zm12.7 3.2V14.4h2.9v8l3.4-3.9h3.6l-3.8 4 4 7h-3.1l-2.8-4.9-1.4 1.4v3.5h-2.8zm18.2-3.5l2.9.5c-.4 1.1-1 1.9-1.8 2.4-.8.6-1.8.8-3 .8-1.9 0-3.3-.6-4.2-1.9-.7-1-1.1-2.3-1.1-3.8 0-1.8.5-3.2 1.4-4.3.9-1 2.1-1.5 3.6-1.5 1.6 0 2.9.5 3.9 1.6.9 1.1 1.4 2.7 1.4 5h-7.3c0 .9.3 1.5.7 2 .5.5 1 .7 1.7.7.5 0 .8-.1 1.1-.4.3-.2.5-.6.7-1.1zm.2-3c0-.8-.2-1.5-.7-1.9-.4-.4-.9-.7-1.5-.7s-1.2.2-1.6.7c-.4.5-.6 1.1-.6 1.9h4.4zm-70 24.3V32.3h10.4v2.6H160v3.6h6.3V41H160v6.4h-3zm15.6 0h-2.9v-11h2.7V38c.5-.7.9-1.2 1.2-1.5.4-.2.8-.4 1.3-.4.7 0 1.3.2 1.9.5l-.9 2.5c-.5-.3-.9-.5-1.4-.5-.4 0-.7.1-1 .3-.3.2-.5.6-.7 1.2-.2.6-.2 1.8-.2 3.7v3.6zm7.7-7.6l-2.6-.5c.3-1.1.8-1.8 1.5-2.4.7-.5 1.8-.8 3.2-.8 1.3 0 2.3.2 2.9.5.6.3 1.1.7 1.3 1.2.3.5.4 1.3.4 2.6v3.4c0 1 0 1.7.1 2.1.1.5.3 1 .5 1.5h-2.9c-.1-.2-.2-.5-.3-.9 0-.2-.1-.3-.1-.3-.5.5-1 .8-1.6 1.1-.6.2-1.2.4-1.8.4-1.1 0-2-.3-2.7-.9-.7-.6-1-1.4-1-2.3 0-.6.1-1.2.4-1.7.3-.5.7-.9 1.2-1.1.5-.3 1.3-.5 2.3-.7 1.4-.3 2.3-.5 2.8-.7V40c0-.6-.1-1-.4-1.2-.3-.2-.8-.4-1.6-.4-.5 0-.9.1-1.2.3 0 .2-.3.6-.4 1.1zm3.9 2.3c-.4.1-1 .3-1.8.4-.8.2-1.3.3-1.6.5-.4.3-.6.6-.6 1s.2.8.5 1.1c.3.3.7.4 1.2.4s1-.2 1.5-.5c.4-.3.6-.6.7-1 .1-.3.1-.7.1-1.4v-.5zm5.4 6l3.3.4c.1.4.2.6.4.8.3.2.7.3 1.3.3.8 0 1.3-.1 1.7-.3.3-.2.4-.4.6-.7.1-.2.1-.7.1-1.3v-1.6c-.9 1.2-2 1.8-3.3 1.8-1.5 0-2.6-.6-3.5-1.9-.7-1-1-2.2-1-3.7 0-1.8.4-3.2 1.3-4.2s2-1.5 3.3-1.5c1.4 0 2.5.6 3.4 1.8v-1.5h2.7v9.8c0 1.3-.1 2.3-.3 2.9-.2.6-.5 1.1-.9 1.5-.4.4-.9.6-1.5.9-.6.2-1.5.3-2.4.3-1.9 0-3.2-.3-4-1-.8-.6-1.2-1.4-1.2-2.4v-.4zm2.6-6.4c0 1.2.2 2 .7 2.6.5.5 1 .8 1.7.8s1.3-.3 1.8-.8c.5-.6.7-1.4.7-2.5s-.2-2-.7-2.5c-.5-.6-1.1-.8-1.8-.8s-1.3.3-1.7.8c-.5.5-.7 1.3-.7 2.4zm15.6-5.3v2.3h-2v4.4c0 .9 0 1.4.1 1.6 0 .2.1.3.3.4.1.1.3.1.5.1.3 0 .7-.1 1.2-.3l.2 2.3c-.7.3-1.4.4-2.3.4-.5 0-1-.1-1.4-.3-.4-.2-.7-.4-.9-.7-.2-.3-.3-.7-.4-1.1-.1-.3-.1-1-.1-2v-4.8h-1.3v-2.3h1.3v-2.2l2.9-1.7v3.9h1.9zm1.8 0h2.7v1.5c1-1.2 2.1-1.7 3.4-1.7.7 0 1.3.1 1.8.4.5.3.9.7 1.3 1.3.5-.6 1-1 1.6-1.3.6-.3 1.2-.4 1.8-.4.8 0 1.5.2 2 .5.6.3 1 .8 1.3 1.4.2.5.3 1.2.3 2.3v7h-2.9v-6.3c0-1.1-.1-1.8-.3-2.1-.3-.4-.7-.6-1.2-.6-.4 0-.8.1-1.1.4-.4.3-.6.6-.8 1.1-.2.5-.2 1.2-.2 2.3v5.3h-2.9v-6c0-1.1-.1-1.8-.2-2.1-.1-.3-.3-.5-.5-.7-.2-.2-.5-.2-.9-.2-.5 0-.9.1-1.2.4-.4.2-.6.6-.8 1-.2.5-.2 1.2-.2 2.3v5.3h-2.9V36.4zm32.4 7.5l2.8.5c-.4 1.1-1 1.9-1.8 2.4s-1.8.8-3.1.8c-.8 0-1.5-.1-2.1-.4-.7-.2-1.2-.6-1.8-1.1-.5.4-1.1.8-1.9 1.1-.8.3-1.6.4-2.4.4-1.2 0-2.1-.3-2.7-.9-.7-.6-1-1.4-1-2.3 0-.6.1-1.1.3-1.5.2-.4.5-.8.8-1 .3-.2.8-.5 1.4-.6.3-.1 1.1-.3 2.5-.6.7-.1 1.3-.3 1.7-.5V40c0-.5-.1-.9-.4-1.2-.3-.3-.8-.4-1.4-.4-.6 0-1 .1-1.3.3-.3.2-.6.6-.7 1l-2.6-.5c.3-1.1.9-1.8 1.6-2.3.7-.5 1.9-.7 3.4-.7.7 0 1.4.1 1.9.2.6.2 1 .4 1.4.8.4-.3.9-.6 1.4-.8.5-.2 1-.2 1.6-.2 1.1 0 2 .2 2.8.7.8.5 1.4 1.2 1.8 2.1.4.9.7 2.2.6 3.8h-7.3c.1.9.4 1.6.8 2 .4.4.9.6 1.5.6.5 0 .9-.1 1.3-.4.4-.2.7-.6.9-1.1zm-7.2-1.7c-1.6.4-2.5.7-2.6.7-.5.2-.8.3-1 .5-.2.2-.3.5-.3.8 0 .4.1.7.5 1 .3.3.7.4 1.2.4s1-.2 1.4-.5c.3-.2.5-.5.6-.9.1-.3.2-1 .2-2zm7.3-1.2c0-.6-.1-1-.2-1.3-.2-.4-.4-.7-.8-.9-.3-.2-.8-.3-1.2-.3-.4 0-.8.1-1.1.3-.3.2-.5.5-.7.9-.2.5-.4 1-.3 1.4h4.3zm15.4 6.4h-2.9v-5.6c0-1.2-.1-1.9-.2-2.3-.1-.3-.3-.6-.6-.8-.3-.2-.6-.3-1-.3-.5 0-1 .1-1.4.4-.4.3-.7.6-.8 1.1-.1.5-.2 1.3-.2 2.5v5h-2.9v-11h2.7V38c1-1.2 2.2-1.9 3.6-1.9.6 0 1.2.1 1.8.3.5.2.9.5 1.2.9.3.4.5.8.6 1.2.1.5.2 1.1.2 2v6.9zm13 0h-2.7v-1.6c-.5.6-1 1.1-1.6 1.4-.6.3-1.2.5-1.8.5-1.3 0-2.3-.5-3.2-1.5-.9-1-1.3-2.4-1.3-4.3s.4-3.3 1.3-4.2c.9-1 2-1.4 3.3-1.4 1.2 0 2.3.5 3.2 1.5v-5.5h2.9v15.1zm-7.8-5.7c0 1.2.2 2 .5 2.5.5.8 1.1 1.1 2 1.1.7 0 1.2-.3 1.7-.9.5-.6.7-1.4.7-2.5 0-1.3-.2-2.2-.7-2.7-.5-.6-1-.8-1.7-.8s-1.3.3-1.7.8c-.6.6-.8 1.4-.8 2.5z"/></svg>